<svg xmlns="http://www.w3.org/2000/svg" viewBox="0 0 128 128" role="img" aria-label="toolPro logo">
  <defs>
    <linearGradient id="tpStroke" x1="0" y1="0" x2="1" y2="1">
      <stop offset="0%" stop-color="#0A3A7A" />
      <stop offset="100%" stop-color="#0C4E9E" />
    </linearGradient>
  </defs>
  <rect width="128" height="128" rx="24" fill="#ffffff" />
  <path d="M64 12 106 30v31c0 24-14 41-42 55C36 102 22 85 22 61V30z" fill="none" stroke="url(#tpStroke)" stroke-width="8" stroke-linejoin="round"/>
  <path d="M64 18 100 33v28c0 21-12 36-36 48C40 97 28 82 28 61V33z" fill="none" stroke="#0A3A7A" stroke-opacity=".18" stroke-width="3.5" stroke-linejoin="round"/>
  <path d="M62 26h4v76h-4z" fill="#F59E0B"/>
  <path d="M64 26l7 7h-4v11h-6V33h-4z" fill="#F59E0B"/>
  <path d="M38 78c6 0 11-5 11-11l7-7c2-2 2-5 0-7l-3-3 5-5 4 4c3 3 3 8 0 11l-8 8c0 9-7 16-16 16h-4v-6z" fill="#0A3A7A"/>
  <rect x="59" y="83" width="10" height="20" rx="3" fill="#0A3A7A"/>
  <rect x="56" y="101" width="16" height="6" rx="2" fill="#0A3A7A"/>
  <path d="M71 63l11-11 10 2-2 10-11 11-8-4z" fill="#0A3A7A"/>
  <path d="M76 68l10-10 4 .8-.8 4-10 10z" fill="#F59E0B"/>
</svg>
